<?xml version="1.0" encoding="UTF-8"?>
<svg width="668px" height="583px" viewBox="0 0 668 583" version="1.1" xmlns="http://www.w3.org/2000/svg" xmlns:xlink="http://www.w3.org/1999/xlink" xmlns:sketch="http://www.bohemiancoding.com/sketch/ns">
    <!-- Generator: Sketch 3.3 (11970) - http://www.bohemiancoding.com/sketch -->
    <title>Slice 1</title>
    <desc>Created with Sketch.</desc>
    <defs>
        <rect id="path-1" x="0" y="0" width="668" height="337"></rect>
    </defs>
    <g id="Page-1" stroke="none" stroke-width="1" fill="none" fill-rule="evenodd" sketch:type="MSPage">
        <g id="iceberg-+-iceberg-copy" sketch:type="MSLayerGroup">
            <g id="iceberg" transform="translate(0.000000, 246.000000)">
                <mask id="mask-2" sketch:name="Mask" fill="white">
                    <use xlink:href="#path-1"></use>
                </mask>
                <use id="Mask" sketch:type="MSShapeGroup" xlink:href="#path-1"></use>
                <g mask="url(#mask-2)" id="Group">
                    <g transform="translate(36.000000, -224.000000)">
                        <g>
                            <path d="M172.663,181.195 L417.338,181.195 C420.018,181.195 422.493,179.765 423.833,177.445 C425.173,175.125 425.173,172.265 423.833,169.945 L349.531,41.25 C348.191,38.93 345.716,37.5 343.036,37.5 C340.356,37.5 337.881,38.93 336.541,41.25 L316.65,75.7 L275.11,3.75 C273.77,1.43 271.295,0 268.615,0 C265.935,0 263.46,1.43 262.12,3.75 L166.167,169.945 C164.827,172.265 164.827,175.125 166.167,177.445 C167.507,179.765 169.983,181.195 172.663,181.195 L172.663,181.195 Z M268.615,22.5 L310.088,94.333 C310.134,94.416 310.181,94.498 310.23,94.579 L340.755,147.45 C342.826,151.038 347.413,152.266 351,150.195 C354.587,148.124 355.816,143.537 353.745,139.95 L325.311,90.7 L343.036,60 L404.348,166.195 L185.653,166.195 L268.615,22.5 L268.615,22.5 Z" id="Shape" fill="#838383" sketch:type="MSShapeGroup"></path>
                            <path d="M568.526316,196.112 L107.473684,196.112 C102.241684,196.112 98,199.47 98,203.612 C98,207.754 102.241684,211.112 107.473684,211.112 L568.526316,211.112 C573.758316,211.112 578,207.754 578,203.612 C578,199.47 573.758316,196.112 568.526316,196.112 L568.526316,196.112 Z" id="Shape" fill="#838383" sketch:type="MSShapeGroup"></path>
                            <path d="M77.4,196.112 L8.6,196.112 C3.85050667,196.112 0,199.47 0,203.612 C0,207.754 3.85050667,211.112 8.6,211.112 L77.4,211.112 C82.1494933,211.112 86,207.754 86,203.612 C86,199.47 82.1494933,196.112 77.4,196.112 L77.4,196.112 Z" id="Shape" fill="#838383" sketch:type="MSShapeGroup"></path>
                            <path d="M417.337,226.03 L172.663,226.03 C170.272,226.03 168.024,227.17 166.612,229.099 C165.199,231.029 164.791,233.516 165.514,235.795 L219.8,407.116 C220.226,408.462 221.024,409.66 222.102,410.573 L290.153,468.222 C291.551,469.407 293.276,469.999 295.001,469.999 C296.726,469.999 298.45,469.407 299.849,468.222 L367.9,410.573 C368.978,409.66 369.775,408.462 370.202,407.116 L392.814,335.755 C394.065,331.806 391.879,327.591 387.93,326.34 C383.979,325.087 379.766,327.276 378.515,331.224 L360.736,387.33 L301.316,294.566 C300.622,293.482 299.66,292.595 298.523,291.99 L202.731,241.03 L387.272,241.03 L318.05,277.855 C314.393,279.8 313.006,284.342 314.951,287.999 C316.3,290.534 318.895,291.978 321.579,291.978 C322.767,291.978 323.973,291.695 325.095,291.098 L404.638,248.782 L387.577,302.627 C386.326,306.576 388.512,310.791 392.461,312.042 C396.41,313.295 400.625,311.106 401.876,307.158 L424.488,235.796 C425.211,233.516 424.802,231.029 423.39,229.1 C421.977,227.17 419.729,226.03 417.337,226.03 L417.337,226.03 Z M353.196,403.37 L295,452.67 L236.804,403.37 L283.502,330.467 C285.736,326.979 284.72,322.341 281.232,320.106 C277.745,317.872 273.105,318.887 270.871,322.376 L229.265,387.331 L185.363,248.782 L289.744,304.311 L353.196,403.37 L353.196,403.37 Z" id="Shape" fill="#FFFFFF" sketch:type="MSShapeGroup"></path>
                        </g>
                    </g>
                </g>
            </g>
            <g id="iceberg-copy" transform="translate(37.000000, 0.000000)" fill="#4E56EE" sketch:type="MSShapeGroup">
                <g id="Group">
                    <path d="M172.663,181.195 L417.338,181.195 C420.018,181.195 422.493,179.765 423.833,177.445 C425.173,175.125 425.173,172.265 423.833,169.945 L349.531,41.25 C348.191,38.93 345.716,37.5 343.036,37.5 C340.356,37.5 337.881,38.93 336.541,41.25 L316.65,75.7 L275.11,3.75 C273.77,1.43 271.295,0 268.615,0 C265.935,0 263.46,1.43 262.12,3.75 L166.167,169.945 C164.827,172.265 164.827,175.125 166.167,177.445 C167.507,179.765 169.983,181.195 172.663,181.195 L172.663,181.195 Z M268.615,22.5 L310.088,94.333 C310.134,94.416 310.181,94.498 310.23,94.579 L340.755,147.45 C342.826,151.038 347.413,152.266 351,150.195 C354.587,148.124 355.816,143.537 353.745,139.95 L325.311,90.7 L343.036,60 L404.348,166.195 L185.653,166.195 L268.615,22.5 L268.615,22.5 Z" id="Shape"></path>
                    <path d="M568.526316,196.112 L107.473684,196.112 C102.241684,196.112 98,199.47 98,203.612 C98,207.754 102.241684,211.112 107.473684,211.112 L568.526316,211.112 C573.758316,211.112 578,207.754 578,203.612 C578,199.47 573.758316,196.112 568.526316,196.112 L568.526316,196.112 Z" id="Shape"></path>
                    <path d="M77.4,196.112 L8.6,196.112 C3.85050667,196.112 0,199.47 0,203.612 C0,207.754 3.85050667,211.112 8.6,211.112 L77.4,211.112 C82.1494933,211.112 86,207.754 86,203.612 C86,199.47 82.1494933,196.112 77.4,196.112 L77.4,196.112 Z" id="Shape"></path>
                </g>
            </g>
        </g>
    </g>
</svg>