<?xml version="1.0" encoding="UTF-8"?>
<svg width="736px" height="630px" viewBox="0 0 736 630" version="1.1" xmlns="http://www.w3.org/2000/svg" xmlns:xlink="http://www.w3.org/1999/xlink" xmlns:sketch="http://www.bohemiancoding.com/sketch/ns">
    <!-- Generator: Sketch 3.3 (11970) - http://www.bohemiancoding.com/sketch -->
    <title>Slice 1</title>
    <desc>Created with Sketch.</desc>
    <defs>
        <rect id="path-1" x="0" y="0" width="736" height="331"></rect>
    </defs>
    <g id="Page-1" stroke="none" stroke-width="1" fill="none" fill-rule="evenodd" sketch:type="MSPage">
        <g id="main_symbol-copy-3-+-main_symbol-copy-2" sketch:type="MSLayerGroup">
            <g id="main_symbol-copy-3" transform="translate(62.000000, 24.000000)" sketch:type="MSShapeGroup">
                <g id="open-book" transform="translate(171.500000, 159.000000)" fill="#FFFFFF">
                    <g id="Group">
                        <path d="M146.946906,123.328521 C147.709265,124.822257 149.225904,125.685214 150.794041,125.685214 C151.448862,125.685214 152.120848,125.533969 152.745881,125.214786 C152.999832,125.085292 178.358608,112.178872 190.865329,108.2207 C193.131706,107.499883 194.389345,105.073891 193.669901,102.803696 C192.954495,100.532996 190.550793,99.2684047 188.263212,99.9851751 C175.088544,104.159339 149.902435,116.979261 148.834123,117.523035 C146.71416,118.601984 145.870012,121.200973 146.946906,123.328521 L146.946906,123.328521 Z" id="Shape"></path>
                        <path d="M150.794041,73.8880545 C151.448862,73.8880545 152.120848,73.7368093 152.745881,73.4176265 C152.999832,73.2881323 178.358608,60.3817121 190.865329,56.4235409 C193.131706,55.7027237 194.389345,53.2767315 193.669901,51.006537 C192.954495,48.7358366 190.550793,47.4712451 188.263212,48.1880156 C175.088544,52.362179 149.902435,65.1821012 148.834123,65.7258755 C146.714665,66.8048249 145.870012,69.4033074 146.946906,71.5313619 C147.709265,73.0245914 149.225904,73.8880545 150.794041,73.8880545 L150.794041,73.8880545 Z" id="Shape"></path>
                        <path d="M254.188053,65.2549416 C251.805556,65.2549416 249.879969,67.1887549 249.879969,69.5712451 L249.879969,237.913658 C249.879969,245.053035 244.080994,250.863074 236.955212,250.863074 L133.557162,250.863074 L133.557162,240.930973 C139.838795,238.729572 156.201234,233.597354 172.331431,233.597354 C209.860682,233.597354 235.344162,241.92393 235.598113,242.009922 C236.894628,242.441401 238.342604,242.225914 239.47554,241.414047 C240.599893,240.602685 241.263296,239.299144 241.263296,237.913152 L241.263296,47.9892218 C241.263296,45.9648638 239.863283,44.2121401 237.889733,43.7761089 C237.889733,43.7761089 234.512131,43.0208949 228.738904,41.9586381 C226.407904,41.5271595 224.15516,43.0810895 223.723998,45.4205837 C223.293341,47.768677 224.839768,50.0176265 227.179351,50.4491051 C229.381103,50.854786 231.224901,51.2129183 232.646624,51.4982101 L232.646624,232.176965 C222.883889,229.612879 201.205135,224.964241 172.330926,224.964241 C153.559737,224.964241 135.120754,231.141012 129.416191,233.234669 C124.345244,230.990272 109.016786,224.964241 90.4737992,224.964241 C60.7983567,224.964241 36.3534016,229.867821 25.8500175,232.35856 L25.8500175,51.3297665 C34.4535634,49.2103113 59.8638363,43.6724125 90.4737992,43.6724125 C106.181922,43.6724125 119.653456,48.5714397 124.939984,50.7859922 L124.939984,220.647938 C124.939984,222.201868 125.77555,223.639455 127.124066,224.403268 C128.472583,225.171634 130.135635,225.149883 131.466986,224.347121 C131.893604,224.092685 174.579632,198.547432 212.466333,185.895953 C214.228341,185.30463 215.413279,183.660156 215.413279,181.799689 L215.413279,4.82416342 C215.413279,3.40832685 214.719583,2.08303502 213.556355,1.27622568 C212.40171,0.468910506 210.919906,0.283268482 209.588556,0.78 C175.118331,13.733463 140.23916,35.4798833 139.889788,35.6958755 C137.873324,36.9604669 137.257378,39.6236965 138.519561,41.6440078 C139.777706,43.6643191 142.435864,44.2814397 144.456366,43.0168482 C144.774942,42.8140078 175.118331,23.8992607 206.796606,11.1354864 L206.796606,178.709533 C177.388242,188.948171 146.683363,205.66607 133.556152,213.150428 L133.556152,47.9892218 C133.556152,46.3533463 132.634253,44.8596109 131.173655,44.1261479 C130.432501,43.7594163 112.777587,35.0398054 90.4737992,35.0398054 C51.5445341,35.0398054 21.6151404,43.478677 20.3569961,43.840856 C18.508655,44.3674319 17.233345,46.0640078 17.233345,47.9892218 L17.233345,237.914163 C17.233345,239.265253 17.871,240.542996 18.9438558,241.358911 C19.7021754,241.933035 20.6154912,242.230973 21.5419337,242.230973 C21.9382593,242.230973 22.3345848,242.174825 22.7223275,242.062529 C23.0196979,241.980584 52.8112612,233.59786 90.4737992,233.59786 C106.224836,233.59786 119.683749,238.510039 124.939984,240.715486 L124.939984,250.86358 L21.5419337,250.86358 C14.416152,250.86358 8.61717739,245.053541 8.61717739,237.914163 L8.61717739,69.571751 C8.61717739,67.1892607 6.68704678,65.2554475 4.30909357,65.2554475 C1.93114035,65.2554475 0.00100974659,67.1892607 0.00100974659,69.571751 L0.00100974659,237.914163 C0.00100974659,249.814475 9.6642846,259.496693 21.5424386,259.496693 L236.955212,259.496693 C248.832862,259.496693 258.496641,249.814981 258.496641,237.914163 L258.496641,69.571751 C258.496136,67.1887549 256.57055,65.2549416 254.188053,65.2549416 L254.188053,65.2549416 Z" id="Shape"></path>
                        <path d="M146.946906,97.4296887 C147.709265,98.9234241 149.225904,99.7863813 150.794041,99.7863813 C151.448862,99.7863813 152.120848,99.6351362 152.745881,99.3159533 C152.999832,99.1864591 178.358608,86.2800389 190.865329,82.3218677 C193.131706,81.6010506 194.389345,79.1750584 193.669901,76.9048638 C192.954495,74.6341634 190.550793,73.369572 188.263212,74.0863424 C175.088544,78.2605058 149.902435,91.080428 148.834123,91.6242023 C146.71416,92.7031518 145.870012,95.3021401 146.946906,97.4296887 L146.946906,97.4296887 Z" id="Shape"></path>
                        <path d="M146.946906,149.227354 C147.709265,150.721089 149.225904,151.584047 150.794041,151.584047 C151.448862,151.584047 152.120848,151.432802 152.745881,151.113619 C152.999832,150.984125 178.358608,138.077704 190.865329,134.119533 C193.131706,133.398716 194.389345,130.972724 193.669901,128.702529 C192.954495,126.431829 190.550793,125.167237 188.263212,125.884008 C175.088544,130.058171 149.902435,142.878093 148.834123,143.421868 C146.71416,144.500817 145.870012,147.099805 146.946906,149.227354 L146.946906,149.227354 Z" id="Shape"></path>
                        <path d="M104.381544,80.6131518 C77.7782554,74.3584825 47.5469474,82.3269261 46.2761813,82.6678599 C43.9800175,83.2849805 42.6143353,85.6502724 43.2302807,87.9553696 C43.747271,89.8846304 45.4875692,91.1537743 47.3879123,91.1537743 C47.7584893,91.1537743 48.1331053,91.1062257 48.5082261,91.0070817 C48.7970136,90.9251362 77.9034639,83.2546304 102.417587,89.0171206 C104.722333,89.5568482 107.053333,88.1192607 107.596072,85.796965 C108.138306,83.4792218 106.699417,81.1569261 104.381544,80.6131518 L104.381544,80.6131518 Z" id="Shape"></path>
                        <path d="M104.381544,106.511984 C77.7782554,100.261868 47.5469474,108.225759 46.2761813,108.566693 C43.9800175,109.183813 42.6143353,111.549611 43.2302807,113.854202 C43.747271,115.783463 45.4875692,117.052607 47.3879123,117.052607 C47.7584893,117.052607 48.1331053,117.005058 48.5082261,116.905914 C48.7970136,116.823969 77.9034639,109.153463 102.417587,114.915953 C104.722333,115.455681 107.053333,114.018093 107.596072,111.695798 C108.138306,109.378054 106.699417,107.055759 104.381544,106.511984 L104.381544,106.511984 Z" id="Shape"></path>
                        <path d="M146.946906,175.126187 C147.709265,176.619922 149.225904,177.482879 150.794041,177.482879 C151.448862,177.482879 152.120848,177.331634 152.745881,177.012451 C152.999832,176.882957 178.358608,163.976537 190.865329,160.018366 C193.131706,159.297549 194.389345,156.871556 193.669901,154.601362 C192.954495,152.331167 190.550793,151.06607 188.263212,151.78284 C175.088544,155.957004 149.902435,168.776926 148.834123,169.3207 C146.71416,170.39965 145.870012,172.998638 146.946906,175.126187 L146.946906,175.126187 Z" id="Shape"></path>
                        <path d="M104.381544,132.410817 C77.7782554,126.1607 47.5469474,134.120039 46.2761813,134.465525 C43.9800175,135.082646 42.6143353,137.448444 43.2302807,139.753035 C43.747271,141.682296 45.4875692,142.955992 47.3879123,142.955992 C47.7584893,142.955992 48.1331053,142.904397 48.5082261,142.804747 C48.7970136,142.722802 77.9034639,135.052296 102.417587,140.814786 C104.722333,141.354514 107.053333,139.916926 107.596072,137.59463 C108.138306,135.276887 106.699417,132.954591 104.381544,132.410817 L104.381544,132.410817 Z" id="Shape"></path>
                        <path d="M104.381544,184.208482 C77.7782554,177.953813 47.5469474,185.922257 46.2761813,186.263191 C43.9800175,186.880311 42.6143353,189.246109 43.2302807,191.5507 C43.747271,193.479961 45.4875692,194.753658 47.3879123,194.753658 C47.7584893,194.753658 48.1331053,194.702062 48.5082261,194.602412 C48.7970136,194.520467 77.9034639,186.849961 102.417587,192.612451 C104.722333,193.147626 107.053333,191.714591 107.596072,189.392296 C108.138306,187.074553 106.699417,184.752257 104.381544,184.208482 L104.381544,184.208482 Z" id="Shape"></path>
                        <path d="M104.381544,158.30965 C77.7782554,152.054981 47.5469474,160.018872 46.2761813,160.364358 C43.9800175,160.981479 42.6143353,163.347276 43.2302807,165.651868 C43.747271,167.581128 45.4875692,168.854825 47.3879123,168.854825 C47.7584893,168.854825 48.1331053,168.80323 48.5082261,168.70358 C48.7970136,168.621634 77.9034639,160.951128 102.417587,166.713619 C104.722333,167.253346 107.053333,165.815759 107.596072,163.493463 C108.138306,161.17572 106.699417,158.853424 104.381544,158.30965 L104.381544,158.30965 Z" id="Shape"></path>
                    </g>
                </g>
                <circle id="Oval-1" stroke="#FFFFFF" stroke-width="8" cx="301" cy="301" r="301"></circle>
            </g>
            <g id="main_symbol-copy-2">
                <mask id="mask-2" sketch:name="Mask" fill="white">
                    <use xlink:href="#path-1"></use>
                </mask>
                <use id="Mask" sketch:type="MSShapeGroup" xlink:href="#path-1"></use>
                <g mask="url(#mask-2)">
                    <g transform="translate(62.000000, 24.000000)">
                        <g id="open-book" stroke="none" stroke-width="1" fill-rule="evenodd" sketch:type="MSLayerGroup" transform="translate(171.500000, 159.000000)">
                            <g id="Group" fill="#4E56EE" sketch:type="MSShapeGroup">
                                <path d="M146.946906,123.328521 C147.709265,124.822257 149.225904,125.685214 150.794041,125.685214 C151.448862,125.685214 152.120848,125.533969 152.745881,125.214786 C152.999832,125.085292 178.358608,112.178872 190.865329,108.2207 C193.131706,107.499883 194.389345,105.073891 193.669901,102.803696 C192.954495,100.532996 190.550793,99.2684047 188.263212,99.9851751 C175.088544,104.159339 149.902435,116.979261 148.834123,117.523035 C146.71416,118.601984 145.870012,121.200973 146.946906,123.328521 L146.946906,123.328521 Z" id="Shape"></path>
                                <path d="M150.794041,73.8880545 C151.448862,73.8880545 152.120848,73.7368093 152.745881,73.4176265 C152.999832,73.2881323 178.358608,60.3817121 190.865329,56.4235409 C193.131706,55.7027237 194.389345,53.2767315 193.669901,51.006537 C192.954495,48.7358366 190.550793,47.4712451 188.263212,48.1880156 C175.088544,52.362179 149.902435,65.1821012 148.834123,65.7258755 C146.714665,66.8048249 145.870012,69.4033074 146.946906,71.5313619 C147.709265,73.0245914 149.225904,73.8880545 150.794041,73.8880545 L150.794041,73.8880545 Z" id="Shape"></path>
                                <path d="M254.188053,65.2549416 C251.805556,65.2549416 249.879969,67.1887549 249.879969,69.5712451 L249.879969,237.913658 C249.879969,245.053035 244.080994,250.863074 236.955212,250.863074 L133.557162,250.863074 L133.557162,240.930973 C139.838795,238.729572 156.201234,233.597354 172.331431,233.597354 C209.860682,233.597354 235.344162,241.92393 235.598113,242.009922 C236.894628,242.441401 238.342604,242.225914 239.47554,241.414047 C240.599893,240.602685 241.263296,239.299144 241.263296,237.913152 L241.263296,47.9892218 C241.263296,45.9648638 239.863283,44.2121401 237.889733,43.7761089 C237.889733,43.7761089 234.512131,43.0208949 228.738904,41.9586381 C226.407904,41.5271595 224.15516,43.0810895 223.723998,45.4205837 C223.293341,47.768677 224.839768,50.0176265 227.179351,50.4491051 C229.381103,50.854786 231.224901,51.2129183 232.646624,51.4982101 L232.646624,232.176965 C222.883889,229.612879 201.205135,224.964241 172.330926,224.964241 C153.559737,224.964241 135.120754,231.141012 129.416191,233.234669 C124.345244,230.990272 109.016786,224.964241 90.4737992,224.964241 C60.7983567,224.964241 36.3534016,229.867821 25.8500175,232.35856 L25.8500175,51.3297665 C34.4535634,49.2103113 59.8638363,43.6724125 90.4737992,43.6724125 C106.181922,43.6724125 119.653456,48.5714397 124.939984,50.7859922 L124.939984,220.647938 C124.939984,222.201868 125.77555,223.639455 127.124066,224.403268 C128.472583,225.171634 130.135635,225.149883 131.466986,224.347121 C131.893604,224.092685 174.579632,198.547432 212.466333,185.895953 C214.228341,185.30463 215.413279,183.660156 215.413279,181.799689 L215.413279,4.82416342 C215.413279,3.40832685 214.719583,2.08303502 213.556355,1.27622568 C212.40171,0.468910506 210.919906,0.283268482 209.588556,0.78 C175.118331,13.733463 140.23916,35.4798833 139.889788,35.6958755 C137.873324,36.9604669 137.257378,39.6236965 138.519561,41.6440078 C139.777706,43.6643191 142.435864,44.2814397 144.456366,43.0168482 C144.774942,42.8140078 175.118331,23.8992607 206.796606,11.1354864 L206.796606,178.709533 C177.388242,188.948171 146.683363,205.66607 133.556152,213.150428 L133.556152,47.9892218 C133.556152,46.3533463 132.634253,44.8596109 131.173655,44.1261479 C130.432501,43.7594163 112.777587,35.0398054 90.4737992,35.0398054 C51.5445341,35.0398054 21.6151404,43.478677 20.3569961,43.840856 C18.508655,44.3674319 17.233345,46.0640078 17.233345,47.9892218 L17.233345,237.914163 C17.233345,239.265253 17.871,240.542996 18.9438558,241.358911 C19.7021754,241.933035 20.6154912,242.230973 21.5419337,242.230973 C21.9382593,242.230973 22.3345848,242.174825 22.7223275,242.062529 C23.0196979,241.980584 52.8112612,233.59786 90.4737992,233.59786 C106.224836,233.59786 119.683749,238.510039 124.939984,240.715486 L124.939984,250.86358 L21.5419337,250.86358 C14.416152,250.86358 8.61717739,245.053541 8.61717739,237.914163 L8.61717739,69.571751 C8.61717739,67.1892607 6.68704678,65.2554475 4.30909357,65.2554475 C1.93114035,65.2554475 0.00100974659,67.1892607 0.00100974659,69.571751 L0.00100974659,237.914163 C0.00100974659,249.814475 9.6642846,259.496693 21.5424386,259.496693 L236.955212,259.496693 C248.832862,259.496693 258.496641,249.814981 258.496641,237.914163 L258.496641,69.571751 C258.496136,67.1887549 256.57055,65.2549416 254.188053,65.2549416 L254.188053,65.2549416 Z" id="Shape"></path>
                                <path d="M146.946906,97.4296887 C147.709265,98.9234241 149.225904,99.7863813 150.794041,99.7863813 C151.448862,99.7863813 152.120848,99.6351362 152.745881,99.3159533 C152.999832,99.1864591 178.358608,86.2800389 190.865329,82.3218677 C193.131706,81.6010506 194.389345,79.1750584 193.669901,76.9048638 C192.954495,74.6341634 190.550793,73.369572 188.263212,74.0863424 C175.088544,78.2605058 149.902435,91.080428 148.834123,91.6242023 C146.71416,92.7031518 145.870012,95.3021401 146.946906,97.4296887 L146.946906,97.4296887 Z" id="Shape"></path>
                                <path d="M146.946906,149.227354 C147.709265,150.721089 149.225904,151.584047 150.794041,151.584047 C151.448862,151.584047 152.120848,151.432802 152.745881,151.113619 C152.999832,150.984125 178.358608,138.077704 190.865329,134.119533 C193.131706,133.398716 194.389345,130.972724 193.669901,128.702529 C192.954495,126.431829 190.550793,125.167237 188.263212,125.884008 C175.088544,130.058171 149.902435,142.878093 148.834123,143.421868 C146.71416,144.500817 145.870012,147.099805 146.946906,149.227354 L146.946906,149.227354 Z" id="Shape"></path>
                                <path d="M104.381544,80.6131518 C77.7782554,74.3584825 47.5469474,82.3269261 46.2761813,82.6678599 C43.9800175,83.2849805 42.6143353,85.6502724 43.2302807,87.9553696 C43.747271,89.8846304 45.4875692,91.1537743 47.3879123,91.1537743 C47.7584893,91.1537743 48.1331053,91.1062257 48.5082261,91.0070817 C48.7970136,90.9251362 77.9034639,83.2546304 102.417587,89.0171206 C104.722333,89.5568482 107.053333,88.1192607 107.596072,85.796965 C108.138306,83.4792218 106.699417,81.1569261 104.381544,80.6131518 L104.381544,80.6131518 Z" id="Shape"></path>
                                <path d="M104.381544,106.511984 C77.7782554,100.261868 47.5469474,108.225759 46.2761813,108.566693 C43.9800175,109.183813 42.6143353,111.549611 43.2302807,113.854202 C43.747271,115.783463 45.4875692,117.052607 47.3879123,117.052607 C47.7584893,117.052607 48.1331053,117.005058 48.5082261,116.905914 C48.7970136,116.823969 77.9034639,109.153463 102.417587,114.915953 C104.722333,115.455681 107.053333,114.018093 107.596072,111.695798 C108.138306,109.378054 106.699417,107.055759 104.381544,106.511984 L104.381544,106.511984 Z" id="Shape"></path>
                                <path d="M146.946906,175.126187 C147.709265,176.619922 149.225904,177.482879 150.794041,177.482879 C151.448862,177.482879 152.120848,177.331634 152.745881,177.012451 C152.999832,176.882957 178.358608,163.976537 190.865329,160.018366 C193.131706,159.297549 194.389345,156.871556 193.669901,154.601362 C192.954495,152.331167 190.550793,151.06607 188.263212,151.78284 C175.088544,155.957004 149.902435,168.776926 148.834123,169.3207 C146.71416,170.39965 145.870012,172.998638 146.946906,175.126187 L146.946906,175.126187 Z" id="Shape"></path>
                                <path d="M104.381544,132.410817 C77.7782554,126.1607 47.5469474,134.120039 46.2761813,134.465525 C43.9800175,135.082646 42.6143353,137.448444 43.2302807,139.753035 C43.747271,141.682296 45.4875692,142.955992 47.3879123,142.955992 C47.7584893,142.955992 48.1331053,142.904397 48.5082261,142.804747 C48.7970136,142.722802 77.9034639,135.052296 102.417587,140.814786 C104.722333,141.354514 107.053333,139.916926 107.596072,137.59463 C108.138306,135.276887 106.699417,132.954591 104.381544,132.410817 L104.381544,132.410817 Z" id="Shape"></path>
                                <path d="M104.381544,184.208482 C77.7782554,177.953813 47.5469474,185.922257 46.2761813,186.263191 C43.9800175,186.880311 42.6143353,189.246109 43.2302807,191.5507 C43.747271,193.479961 45.4875692,194.753658 47.3879123,194.753658 C47.7584893,194.753658 48.1331053,194.702062 48.5082261,194.602412 C48.7970136,194.520467 77.9034639,186.849961 102.417587,192.612451 C104.722333,193.147626 107.053333,191.714591 107.596072,189.392296 C108.138306,187.074553 106.699417,184.752257 104.381544,184.208482 L104.381544,184.208482 Z" id="Shape"></path>
                                <path d="M104.381544,158.30965 C77.7782554,152.054981 47.5469474,160.018872 46.2761813,160.364358 C43.9800175,160.981479 42.6143353,163.347276 43.2302807,165.651868 C43.747271,167.581128 45.4875692,168.854825 47.3879123,168.854825 C47.7584893,168.854825 48.1331053,168.80323 48.5082261,168.70358 C48.7970136,168.621634 77.9034639,160.951128 102.417587,166.713619 C104.722333,167.253346 107.053333,165.815759 107.596072,163.493463 C108.138306,161.17572 106.699417,158.853424 104.381544,158.30965 L104.381544,158.30965 Z" id="Shape"></path>
                            </g>
                        </g>
                        <circle id="Oval-1" stroke="#4E56EE" stroke-width="8" sketch:type="MSShapeGroup" cx="301" cy="301" r="301"></circle>
                    </g>
                </g>
            </g>
        </g>
    </g>
</svg>